<svg width="28" height="26" viewBox="0 0 28 26" fill="none" xmlns="http://www.w3.org/2000/svg">
<path fill-rule="evenodd" clip-rule="evenodd" d="M7.637 0C3.4181 0 0 3.46274 0 7.73391C0 15.1714 8.5148 22.277 12.4936 25.4433C12.4985 25.4462 12.5013 25.449 12.5041 25.4518C12.5314 25.4738 12.5699 25.5043 12.5972 25.5263V25.5235C13.0018 25.8312 13.4939 26 14 26C14.5061 26 14.9982 25.8341 15.4028 25.5235V25.5263C15.4112 25.5178 15.4217 25.51 15.4301 25.5043C15.4385 25.4986 15.4462 25.493 15.4518 25.4873C15.4602 25.4823 15.4658 25.4738 15.4735 25.4681C19.4411 22.316 28 15.1884 28 7.73391C28 3.46274 24.5819 0 20.363 0C16.3324 0 14 3.54571 14 3.54571C14 3.54571 11.6676 0 7.637 0Z" fill="#CED5DC"/>
</svg>
